<svg width="36" height="35" viewbox="0 0 36 35">
  <path
    d="M11.404 34.817H7.749a.903.903 0 01-.891-.914v-2.469c0-1.537 1.22-2.788 2.719-2.788 1.499 0 2.718 1.25 2.718 2.788v2.469c0 .505-.399.914-.891.914zM8.64 32.99h1.872v-1.555a.95.95 0 00-.936-.96.95.95 0 00-.936.96zm.936-2.606a.903.903 0 01-.892-.914V15.662c0-1.219 1.783-1.219 1.783 0V29.47c0 .505-.4.914-.891.914zM18 27.563c-6.881 0-12.48-3.977-12.48-8.866 0-1.22 1.784-1.22 1.784 0 0 3.88 4.798 7.038 10.696 7.038s10.697-3.158 10.697-7.038c0-1.22 1.783-1.22 1.783 0 0 4.89-5.599 8.867-12.48 8.867zM9.71 16.072c-.929 0-1.24-1.275-.418-1.722l8.242-4.494c1.05-.572 1.886 1.043.837 1.615l-8.243 4.494a.868.868 0 01-.417.107zm-3.298 3.15a.903.903 0 01-.891-.913v-4.076c0-1.22 1.783-1.22 1.783 0v4.076c0 .504-.4.914-.892.914zm23.176 0a.903.903 0 01-.891-.913v-4.076c0-1.22 1.783-1.22 1.783 0v4.076c0 .504-.4.914-.892.914zM18 21.176a.874.874 0 01-.43-.114L.633 11.49c-.616-.347-.616-1.254 0-1.601L17.568.297a.873.873 0 01.862 0l16.937 9.592c.613.348.613 1.253-.001 1.6L18.43 21.062a.872.872 0 01-.43.114zM2.91 10.688L18 19.218l15.09-8.53L18 2.142z" />
  <path
    d="M18 0c-.178 0-.356.045-.517.136L.547 9.73c-.73.412-.73 1.509 0 1.92l4.796 2.71v3.948c0 .05.045.08.051.127-.02.087-.051.165-.051.262 0 2.285 1.228 4.341 3.164 5.926v4.063a2.967 2.967 0 00-1.827 2.75v2.468c0 .604.48 1.097 1.07 1.097h3.654c.589 0 1.07-.493 1.07-1.097v-2.469c0-1.248-.76-2.31-1.828-2.749v-2.651c2.08 1.068 4.607 1.713 7.354 1.713 3.474 0 6.627-1.003 8.922-2.633 2.294-1.63 3.736-3.901 3.736-6.418 0-.097-.032-.175-.052-.262.007-.048.052-.077.052-.127V14.36l4.795-2.71c.729-.413.73-1.508 0-1.921L18.519.136A1.05 1.05 0 0018 0zm-.345.457a.697.697 0 01.69 0L35.28 10.05c.5.283.499.998 0 1.28l-4.674 2.642c-.05-.226-.14-.427-.288-.562a1.081 1.081 0 00-.73-.274c-.263 0-.528.088-.732.274a1.094 1.094 0 00-.338.823v.92l-10.175 5.75a.697.697 0 01-.689 0l-7.009-3.962v-1.052l.557-.304L18 19.426l15.46-8.738L18 1.933 2.54 10.688l.284.16 6.225 3.518c-.214.192-.327.421-.351.684-.11.17-.191.367-.191.612v.07l-1.025-.58v-.92c0-.35-.135-.637-.339-.823a1.081 1.081 0 00-.73-.274c-.263 0-.528.088-.732.274-.148.135-.238.336-.288.562L.72 11.33v-.001a.734.734 0 010-1.28zM18 2.351l14.722 8.337-14.723 8.32-6.42-3.628 6.875-3.749c.302-.164.485-.42.55-.692a1.152 1.152 0 00-.108-.791 1.108 1.108 0 00-.579-.534 1.03 1.03 0 00-.867.08l-8.109 4.42-6.063-3.426zm.193 7.606a.755.755 0 01.389.362c.086.166.116.36.075.534-.041.173-.147.334-.37.455l-7.08 3.861-1.493-.843 7.903-4.31c.223-.12.413-.121.576-.06zM6.413 13.5c.182 0 .363.063.494.182.13.119.218.29.218.549v.719l-1.397-.79c.019-.206.076-.375.19-.478a.737.737 0 01.494-.182zm23.175 0c.183 0 .364.063.495.182.113.103.17.271.19.477l-1.398.79v-.718c0-.259.088-.43.219-.55a.737.737 0 01.494-.181zM9.351 14.538l.119.067c-.098.01-.181.068-.274.103.049-.058.08-.125.155-.17zm-3.652.023l1.426.807v2.5a1.084 1.084 0 00-1.426 0zm24.602 0v3.306a1.084 1.084 0 00-1.426 0v-2.5zm-20.724.37c.183 0 .364.064.494.182.13.12.219.29.219.55v.005l-.245.134h-.001a.691.691 0 01-.333.086c-.386 0-.619-.25-.693-.555-.005-.022.007-.044.004-.067.028-.042.024-.12.06-.153a.738.738 0 01.495-.182zm.983.29l.27.152-.217.12c-.013-.095-.021-.191-.053-.272zm17.959.347v2.74c0 .049.045.078.051.126-.02.087-.051.165-.051.262 0 1.864-1.153 3.57-3.055 4.821-1.902 1.252-4.546 2.035-7.464 2.035-2.866 0-5.46-.761-7.354-1.975v-6.22l6.837 3.865a1.047 1.047 0 001.033 0zm-21.037.001l1.025.58v5.442c-.64-.886-1.025-1.86-1.025-2.895 0-.097-.032-.175-.052-.262.007-.048.052-.077.052-.127zm1.381.167c.183.285.45.518.848.518.174 0 .347-.045.5-.129l.079-.043v.657l-1.427-.806zm0 .614l1.427.806v6.165a7.904 7.904 0 01-1.427-1.298zm-2.45 1.615c.182 0 .363.064.494.183.084.076.104.224.14.353-.09.299-.313.538-.635.538s-.545-.239-.635-.538c.037-.13.057-.277.14-.353a.738.738 0 01.495-.183zm23.175 0c.183 0 .364.064.495.183.084.076.104.224.14.353-.09.299-.313.538-.635.538s-.545-.239-.635-.538c.037-.13.057-.277.14-.353a.738.738 0 01.495-.183zM7.18 19.052c.084 1.127.56 2.172 1.327 3.1v1.995c-1.612-1.396-2.612-3.123-2.747-5.02.184.152.398.277.652.277.306 0 .572-.14.768-.352zm21.64 0c.196.213.463.352.768.352.254 0 .468-.125.652-.278-.156 2.2-1.434 4.204-3.521 5.687-2.225 1.581-5.312 2.568-8.719 2.568-2.769 0-5.299-.674-7.354-1.767V23.99c1.944 1.19 4.514 1.928 7.354 1.928 2.98 0 5.685-.795 7.656-2.093 1.853-1.219 3.025-2.901 3.165-4.773zM8.864 22.584a8.71 8.71 0 001.427 1.198v1.623c-.34-.195-.7-.373-1.009-.592-.155-.11-.271-.243-.418-.36zm0 2.345c.078.058.136.128.216.185.37.263.797.482 1.21.71v2.787c-.233-.063-.46-.148-.712-.148-.253 0-.48.085-.714.148zm.714 3.9c.252 0 .482.077.713.147v.493a.72.72 0 01-.713.732.72.72 0 01-.714-.732v-.493c.231-.07.46-.148.714-.148zm-1.07.26v.38c0 .475.334.808.747.96-.438.154-.792.505-.792 1.005v1.737H10.691v-1.737c0-.5-.354-.85-.792-1.005.414-.152.747-.485.747-.96v-.38a2.599 2.599 0 011.471 2.345v2.469a.72.72 0 01-.713.731H7.749a.72.72 0 01-.713-.731v-2.469c0-1.043.607-1.929 1.47-2.345zm1.07 1.568c.419 0 .757.347.757.777v1.372H8.82v-1.372c0-.43.338-.777.758-.777z" />
</svg>
