<svg  width="31.622786" height="29.581936" viewBox="0 0 31.622785 29.581936">
  <path
    d="M19.451.039c-1.238-.161-2.369.432-3.132 1.297-.839.95-1 2.143-.818 3.187.164.936.55 1.969 1.406 2.877.553.587 1.251 1.24 1.914 1.807.963.825 2.425 1.525 2.966 1.933.448.251.793.24 1.159.134.076-.022.653-.387.729-.422.956-.674 1.494-.966 2.286-1.634.688-.588 1.252-1.183 1.77-1.732.855-.907 1.236-1.945 1.4-2.882.183-1.043.021-2.236-.818-3.187C27.55.553 26.42-.04 25.181.12c-.78.101-1.539.512-2.395 1.27-.158.141-.249.207-.416.348-.185-.153-.325-.258-.524-.435C20.99.545 20.23.14 19.45.04zm-.256 2.052c.35.045.603.145 1.315.776.175.156.588.496 1.02.792a1.01 1.01 0 001.262.332c.684-.333 1.107-.84 1.336-1.043.711-.63.959-.725 1.31-.77.516-.068.905.111 1.357.624.184.208.39 1.112.332 1.444-.12.687-.315 1.216-.872 1.807-.514.546-1.02 1.077-1.608 1.58-.513.439-1.403.977-2.165 1.504-.858-.56-1.905-1.131-2.347-1.51a24.372 24.372 0 01-1.758-1.655c-.557-.591-.751-1.126-.871-1.813-.058-.332.147-1.23.331-1.439.453-.512.841-.697 1.358-.63zM1.74 13.94l-.206.061-.271.156-.227.153-.288.233-.417.448-.26.469-.07.467.037 12.17c.105.45.472.824.883 1.188.08.072.208.128.286.2l.154.075.135.02h3.925l.581-.351.59-.47.317-.403.249-.481.059-2.383c4.51 1.7 7.058 2.605 10.198 2.437 1.818-.097 3.51-.33 6.654-1.368.345-.114.906-.34 1.347-.505.78-.288 1.51-.6 2.4-.988 1.025-.446 2.004-.96 2.753-1.634.374-.337.703-.724.903-1.226.2-.502.214-1.147-.027-1.689-.413-.932-1.182-1.557-1.924-1.66-.742-.105-1.274.1-1.646.157-.894.135-1.913.434-2.796.69-.44.126-.847.24-1.154.32-.461.119-.39.066-.764.13-.347.026-.648.037-.99.048.249-.257.484-.543.578-.917.109-.43.041-.905-.139-1.276-.36-.741-1.01-1.162-1.806-1.525-.85-.387-1.571-.241-2.32-.2-.749.04-1.492.042-1.77-.033-1.255-.344-2.437-1.116-4.313-1.206-1.532-.072-3.302-.005-4.86.412-.108-.956-.568-1.404-1.002-1.468l-4.5-.065zm.725 2.057c2.144-.22 3.79-.49 3.406 1.777l-.584 3.456-.144 5.744-.195.308-.35.23h-2.33l-.094-.014-.067-.063-.036-.054.004-.087-.038-10.911.036-.164.124-.12.128-.075zm9.84 1.119c1.335.063 2.278.696 3.88 1.134.841.23 1.667.138 2.406.098.738-.04 1.42.046 1.379.027.463.212.593.377.668.456-.385.326-2.184 1.046-5.495 1.232a1.03 1.03 0 00-.962 1.091c.446 1.072 1.05.933 1.919.934 1.92-.124 4.34.24 5.847.201.634-.016.97-.032 1.577-.081.279-.056.619-.116.903-.174.36-.092.77-.21 1.208-.337.878-.253 1.868-.533 2.54-.635.573-.087.96-.166 1.063-.152.102.015.106-.088.347.456.023.052.023-.007-.005.065-.029.072-.14.25-.364.45-.448.404-1.29.883-2.207 1.282-.887.386-1.576.684-2.293.95-.479.178-1.114.424-1.277.478-3.032 1-4.404 1.178-6.131 1.27-2.896.154-5.08-.692-10.038-2.568l.048-1.873.63-3.995c1.053-.31 2.755-.385 4.357-.31z" />
</svg>
