<svg width="32" height="25" viewBox="0 0 31.999999 25">
  <path
    d="M11.026 0c-.906 0-1.665.765-1.665 1.67v2.32H2.744A2.758 2.758 0 000 6.73V22.26C0 23.761 1.241 25 2.744 25h26.512A2.758 2.758 0 0032 22.261V6.73c0-1.5-1.241-2.74-2.744-2.74H22.78V1.67c0-.905-.76-1.67-1.666-1.67zm.323 1.992h9.434v1.867H11.35zm-8.605 3.99h26.512c.433 0 .749.316.749.748v1.186c-.116.112-3.506 3.386-10.146 3.815-2.128.138-7.107.255-9.493-.242-1.889-.393-4.72-1.199-5.715-1.764-.606-.345-.971-.64-1.416-.982-.317-.244-.781-.51-1.24-.768V6.73c0-.432.316-.747.749-.747zm27.26 4.314V22.26a.724.724 0 01-.748.747H2.744a.724.724 0 01-.749-.747V10.303l.022.015c.416.32.902.713 1.644 1.135 1.568.892 4.309 1.57 6.301 1.984.678.141 1.485 0 2.311.066-.032.127-.25.114-.25.25v1.515c0 .905.76 1.662 1.666 1.662h4.761c.907 0 1.666-.757 1.666-1.662v-1.516c0-.032-.057-.027-.06-.058 5.508-.38 8.461-2.271 9.949-3.398zm-15.992 3.786h4.115v.864h-4.115z" />
</svg>
