<svg  width="23.215481" height="24.965866" viewBox="0 0 23 25">
  <path
    d="M.186 0v1.848h1.609V0zm3.27 0v1.848h1.608V0zm3.407 0v1.848h1.61V0zm3.884 0v1.848h1.609V0zm10.516 0v1.848h1.61V0zm-6.677.044V1.9h1.61V.044zm3.123 0V1.9h1.61V.044zm-7.094 2.698V10.8c-.148-.11-.136-.015-.292-.163-.553-.52-1.05-1.234-1.434-2.225-.15-.39-.292-1.493-.329-2.602-.037-1.109-.015-2.26-.015-3.03H6.717c0 .729-.024 1.911.015 3.09.038 1.177.103 2.309.453 3.215.474 1.225 1.133 2.189 1.894 2.905.735.691.966.58 1.536.79v1.864c-.438-.076-1.283-.125-2.633-1.227-.896-.733-1.69-1.715-2.289-3.06-.26-.583-.456-2.047-.512-3.527-.056-1.48-.022-3.008-.022-4.028H3.331c0 .972-.037 2.543.022 4.102.059 1.56.165 3.067.673 4.206.711 1.598 1.694 2.838 2.808 3.748 1.856 1.516 3.409 1.663 3.781 1.715v1.338c-.253-.027-2.293-.198-4.622-1.84-1.333-.94-2.493-2.2-3.364-3.889-.397-.77-.673-2.57-.754-4.406-.08-1.836-.029-3.734-.029-4.997H.018c0 1.208-.056 3.15.03 5.079.084 1.928.254 3.818.957 5.182a12.535 12.535 0 003.942 4.546c2.819 1.987 5.546 2.214 5.668 2.225v3.341H7.31V25h8.213v-1.848h-3.071v-3.32c.181-.016 2.815-.237 5.602-2.202a12.535 12.535 0 003.942-4.546c.703-1.363.873-3.254.958-5.182.085-1.928.03-3.87.03-5.078h-1.83c0 1.262.052 3.16-.028 4.997-.081 1.836-.357 3.636-.754 4.405-.87 1.69-2.031 2.949-3.364 3.889-2.295 1.618-4.249 1.777-4.556 1.81V16.47c.57-.098 1.76-.188 3.459-1.575 1.114-.91 2.097-2.142 2.808-3.74.508-1.14.614-2.648.673-4.206.06-1.56.022-3.138.022-4.11h-1.836c0 1.02.042 2.556-.014 4.036-.056 1.48-.253 2.936-.512 3.518-.6 1.346-1.393 2.336-2.29 3.068-1.18.965-1.75.948-2.31 1.072v-1.76c.555-.218.747-.093 1.433-.739.762-.716 1.42-1.68 1.894-2.905.35-.906.415-2.037.454-3.215.039-1.178.014-2.36.014-3.09h-1.828c0 .77.022 1.922-.015 3.03-.036 1.11-.178 2.212-.329 2.603-.383.99-.88 1.705-1.433 2.225-.102.095-.092.024-.19.103V2.742z" />
</svg>
